<svg xmlns="http://www.w3.org/2000/svg" version="1.1" xmlns:xlink="http://www.w3.org/1999/xlink" xmlns:svgjs="http://svgjs.dev/svgjs" width="1920" height="1080" preserveAspectRatio="none" viewBox="0 0 1920 1080"><g mask="url(&quot;#SvgjsMask1191&quot;)" fill="none"><path d="M -1483.1231834819064,742 C -1291.12,663.8 -907.12,376.6 -523.1231834819065,351 C -139.12,325.4 52.88,598.8 436.8768165180935,614 C 820.88,629.2 1100.25,409.4 1396.8768165180936,427 C 1693.5,444.6 1815.38,647 1920,702" stroke="rgba(213, 206, 206, 1)" stroke-width="2"></path><path d="M -340.34688743455786,740 C -148.35,680.8 235.65,478.4 619.6531125654421,444 C 1003.65,409.6 1195.65,594.2 1579.6531125654421,568 C 1963.65,541.8 2471.58,272.4 2539.653112565442,313 C 2607.72,353.6 2043.93,679.4 1920,771" stroke="rgba(244, 144, 29, 1)" stroke-width="2"></path><path d="M -1522.927550400187,365 C -1330.93,406.2 -946.93,575.6 -562.9275504001872,571 C -178.93,566.4 13.07,340.4 397.0724495998128,342 C 781.07,343.6 1052.49,561.2 1357.072449599813,579 C 1661.66,596.8 1807.41,460.6 1920,431" stroke="rgba(244, 144, 29, 1)" stroke-width="2"></path><path d="M -447.1362021980335,586 C -255.14,537 128.86,311.8 512.8637978019665,341 C 896.86,370.2 1088.86,727.8 1472.8637978019665,732 C 1856.86,736.2 2343.44,382.6 2432.8637978019665,362 C 2522.29,341.4 2022.57,575.6 1920,629" stroke="rgba(213, 206, 206, 1)" stroke-width="2"></path><path d="M -103.4717628262324,660 C 88.53,603.8 472.53,362.2 856.5282371737676,379 C 1240.53,395.8 1432.53,727.4 1816.5282371737676,744 C 2200.53,760.6 2755.83,473.6 2776.5282371737676,462 C 2797.22,450.4 2091.31,641.2 1920,686" stroke="rgba(244, 144, 29, 1)" stroke-width="2"></path><path d="M -930.4682161274031,758 C -738.47,690.6 -354.47,462.6 29.531783872596904,421 C 413.53,379.4 605.53,537.4 989.5317838725969,550 C 1373.53,562.6 1763.44,471.8 1949.5317838725969,484 C 2135.63,496.2 1925.91,585.6 1920,611" stroke="rgba(213, 206, 206, 1)" stroke-width="2"></path></g><defs><mask id="SvgjsMask1191"><rect width="1920" height="1080" fill="#ffffff"></rect></mask></defs></svg>